<svg width="60" height="60" viewBox="0 0 60 60" fill="none" xmlns="http://www.w3.org/2000/svg">
<path d="M58.4167 30.9653L32.1666 1.79861C31.0612 0.56778 28.9379 0.56778 27.8325 1.79861L1.58248 30.9653C1.2053 31.3845 0.957722 31.904 0.869721 32.461C0.78172 33.018 0.857069 33.5886 1.08665 34.1036C1.55331 35.1565 2.59748 35.8332 3.74956 35.8332H9.5829V56.2499C9.5829 57.0234 9.89019 57.7653 10.4372 58.3123C10.9842 58.8592 11.726 59.1665 12.4996 59.1665H21.2496C22.0231 59.1665 22.765 58.8592 23.312 58.3123C23.8589 57.7653 24.1662 57.0234 24.1662 56.2499V44.5832H35.8329V56.2499C35.8329 57.0234 36.1402 57.7653 36.6872 58.3123C37.2341 58.8592 37.976 59.1665 38.7496 59.1665H47.4996C48.2731 59.1665 49.015 58.8592 49.562 58.3123C50.1089 57.7653 50.4162 57.0234 50.4162 56.2499V35.8332H56.2496C56.8144 35.8356 57.3678 35.6736 57.8422 35.367C58.3166 35.0603 58.6915 34.6223 58.9212 34.1062C59.1509 33.5902 59.2255 33.0184 59.136 32.4607C59.0464 31.903 58.7964 31.3834 58.4167 30.9653Z" fill="white"/>
</svg>
